<?xml version="1.0" standalone="no"?>
<!DOCTYPE svg PUBLIC "-//W3C//DTD SVG 20010904//EN"
 "http://www.w3.org/TR/2001/REC-SVG-20010904/DTD/svg10.dtd">
<svg version="1.0" xmlns="http://www.w3.org/2000/svg"
 width="1500.000000pt" height="1500.000000pt" viewBox="0 0 1500.000000 1500.000000"
 preserveAspectRatio="xMidYMid meet">
<metadata>
Created by potrace 1.16, written by Peter Selinger 2001-2019
</metadata>
<g transform="translate(0.000000,1500.000000) scale(0.100000,-0.100000)"
fill="#000000" stroke="none">
<path d="M3515 9200 c-91 -11 -136 -20 -178 -36 -20 -8 -49 -14 -62 -14 -14 0
-25 -5 -25 -11 0 -11 12 -11 220 11 242 25 465 6 624 -55 224 -85 391 -200
447 -309 52 -100 55 -134 8 -97 -26 20 -107 61 -121 61 -5 0 -14 5 -21 10 -34
30 -183 121 -206 127 -14 3 -30 9 -36 13 -10 6 -42 16 -130 39 -22 6 -108 13
-190 16 -123 6 -177 3 -300 -14 -233 -33 -259 -38 -322 -56 -32 -10 -92 -26
-133 -37 -105 -27 -130 -35 -170 -51 -19 -8 -50 -20 -68 -27 -97 -37 -321
-161 -342 -189 -3 -4 -23 -20 -45 -37 -154 -113 -215 -191 -287 -364 -6 -14
-15 -34 -20 -44 -16 -31 -21 -166 -9 -243 12 -78 31 -143 62 -210 10 -24 19
-46 19 -50 0 -3 7 -14 15 -23 9 -10 13 -24 9 -33 -5 -14 -104 -73 -201 -121
-19 -9 -23 -19 -23 -57 0 -26 7 -60 15 -75 8 -16 15 -46 15 -66 0 -20 5 -40
10 -43 6 -3 10 -23 10 -43 1 -20 7 -55 15 -77 8 -22 15 -52 15 -67 0 -15 5
-30 10 -33 6 -3 10 -17 10 -30 0 -13 5 -27 10 -30 6 -3 10 -16 10 -28 0 -12 7
-31 15 -41 8 -11 15 -28 15 -38 0 -10 5 -18 10 -18 6 0 10 -9 10 -19 0 -11 4
-23 10 -26 6 -3 10 -14 10 -25 0 -10 7 -20 15 -24 8 -3 15 -15 15 -26 0 -11 4
-20 9 -20 5 0 14 -15 22 -32 7 -18 16 -35 19 -38 3 -3 16 -27 29 -55 68 -146
334 -408 524 -516 139 -79 357 -176 422 -187 28 -5 29 -4 15 13 -8 10 -58 56
-110 101 -52 46 -135 122 -185 168 -49 47 -104 92 -121 101 -20 9 -78 76 -164
191 -124 164 -134 180 -141 233 -5 31 -4 60 1 65 8 8 112 -94 135 -133 13 -22
178 -175 228 -212 21 -15 70 -56 108 -91 68 -61 147 -111 256 -163 97 -46 348
-69 488 -45 28 4 54 4 59 0 4 -5 3 -31 -5 -59 -12 -49 -17 -54 -88 -100 -42
-26 -112 -62 -155 -78 -93 -36 -84 -45 44 -41 59 2 85 -1 88 -10 5 -16 59 -16
64 1 4 9 41 12 140 13 91 0 141 4 151 12 11 9 13 28 9 81 -3 47 0 83 12 117 8
27 19 75 22 107 4 31 10 57 13 57 4 0 13 -21 20 -47 7 -27 25 -75 41 -108 16
-33 38 -81 49 -107 15 -36 25 -48 41 -48 11 0 23 7 26 15 7 16 -28 115 -57
162 -23 36 -59 155 -59 192 0 33 46 91 72 91 33 0 77 -33 169 -128 80 -82 107
-122 124 -179 9 -31 27 -29 67 7 18 17 39 30 46 30 8 0 23 11 34 25 11 14 25
25 32 25 7 0 21 8 32 18 10 10 37 31 59 47 46 34 265 251 265 262 0 5 14 22
30 40 17 18 30 35 30 38 0 5 50 86 60 95 3 3 12 19 20 35 8 17 17 32 20 35 11
11 40 73 40 86 0 8 5 14 10 14 6 0 10 7 10 15 0 8 4 23 9 33 8 15 20 42 51
117 4 11 12 38 18 60 6 22 18 64 26 94 9 29 16 65 16 80 0 15 4 31 9 37 9 9
22 179 24 299 1 69 -17 258 -31 325 -16 76 -34 144 -43 162 -5 10 -9 26 -9 36
0 10 -4 22 -9 27 -4 6 -16 35 -27 65 -10 30 -22 59 -26 65 -4 5 -8 17 -8 27 0
10 -4 18 -10 18 -5 0 -10 7 -10 15 0 9 -10 32 -23 53 -12 20 -29 51 -37 67 -8
17 -17 32 -20 35 -3 3 -21 29 -39 58 -19 30 -39 59 -45 65 -7 7 -25 30 -41 51
-61 80 -211 221 -318 298 -39 29 -73 56 -75 60 -2 5 -9 8 -15 8 -6 0 -18 7
-27 15 -9 8 -56 35 -106 61 -49 25 -96 52 -105 60 -15 13 -49 20 -49 9 0 -3
14 -27 30 -53 17 -27 30 -52 30 -56 0 -15 -30 -3 -88 38 -56 40 -235 123 -317
148 -130 39 -380 57 -540 38z m538 -320 c114 -30 190 -63 260 -113 34 -24 98
-63 142 -85 44 -23 94 -49 110 -58 17 -9 37 -20 45 -24 14 -6 39 -86 40 -123
0 -18 -2 -18 -32 2 -71 47 -130 71 -308 124 -272 83 -328 91 -630 91 -234 0
-267 -2 -400 -26 -80 -15 -185 -34 -235 -42 -261 -45 -392 -83 -547 -162 -48
-24 -91 -44 -94 -44 -20 0 89 90 201 167 88 60 276 145 430 195 146 46 387 95
582 118 128 14 346 5 436 -20z m-38 -239 c22 -5 66 -15 97 -21 31 -6 112 -29
179 -51 67 -21 129 -39 138 -39 21 0 146 -64 188 -96 55 -42 68 -68 53 -107
-28 -70 -34 -71 -107 -15 -37 27 -82 65 -100 85 -41 42 -172 104 -269 127 -64
16 -120 17 -520 13 -645 -6 -847 -22 -1034 -82 -108 -35 -130 -39 -130 -29 0
23 195 91 357 125 116 24 378 71 553 99 71 11 542 4 595 -9z m200 -170 c17 -7
41 -19 55 -25 48 -21 105 -68 166 -134 56 -62 96 -133 82 -147 -3 -4 -23 1
-43 9 -21 9 -51 16 -67 16 -39 0 -118 -20 -118 -30 0 -9 -49 -27 -140 -54 -66
-20 -73 -24 -89 -54 -10 -20 -8 -31 13 -74 14 -29 26 -59 26 -69 0 -25 27 -42
57 -36 62 12 263 75 285 89 21 14 27 13 68 -6 49 -24 48 -18 35 -131 -9 -75
-12 -81 -33 -62 -64 57 -174 83 -271 65 -45 -9 -65 -19 -101 -54 -25 -24 -56
-64 -70 -88 -24 -45 -24 -45 -5 -67 89 -97 321 -95 414 5 30 32 58 33 71 4 14
-36 40 -223 40 -291 -1 -115 -37 -411 -58 -476 -25 -77 -64 -142 -198 -328
-57 -78 -110 -156 -120 -175 -9 -18 -47 -63 -83 -99 -54 -53 -78 -70 -131 -88
-99 -34 -221 -51 -365 -50 -269 0 -377 43 -625 249 -258 214 -398 359 -467
485 l-27 50 -8 285 c-9 316 -12 350 -33 350 -30 0 -23 22 39 119 35 55 71 124
80 152 10 29 33 76 52 106 19 29 34 56 34 58 0 3 14 24 30 47 l30 41 0 -37 c0
-51 32 -66 92 -43 35 13 70 16 182 12 134 -4 213 -18 281 -50 17 -7 57 -22 90
-32 l60 -18 -80 -6 c-44 -3 -102 -13 -130 -21 -27 -8 -94 -23 -147 -33 -70
-12 -112 -26 -150 -49 -50 -29 -53 -34 -53 -71 0 -36 3 -40 33 -49 17 -5 32
-12 32 -16 0 -4 28 -26 63 -49 121 -78 321 -107 435 -63 75 29 98 46 138 103
20 27 45 54 56 60 43 23 -30 114 -121 150 -86 34 -83 40 15 33 115 -8 134 0
134 59 0 23 -7 60 -16 83 -18 46 -49 65 -169 99 -33 9 -73 23 -90 31 -56 25
-210 76 -257 84 -27 5 -53 12 -60 16 -6 4 -42 7 -80 6 -37 -1 -68 1 -68 6 0 8
75 55 135 85 34 16 43 20 175 72 52 21 109 44 125 51 43 20 805 16 850 -5z
m-1821 -123 c-79 -61 -137 -148 -161 -241 -17 -65 -17 -69 6 -189 12 -68 34
-156 48 -196 41 -119 10 -137 -42 -24 -48 104 -59 159 -59 297 -1 128 -1 131
33 198 36 71 86 124 139 148 18 8 32 17 32 21 0 5 7 8 16 8 12 0 8 -7 -12 -22z
m1116 -556 c60 -33 80 -51 80 -73 0 -26 -74 -115 -111 -133 -51 -26 -63 -22
-56 20 7 41 -9 137 -28 175 -28 54 29 59 115 11z m-1071 -374 c7 -46 17 -134
23 -196 13 -132 11 -136 -68 -150 -64 -11 -90 1 -139 65 l-36 48 26 7 c32 8
65 36 65 54 0 8 16 16 40 20 70 11 97 72 55 122 -14 17 -25 35 -25 41 0 18 29
71 39 71 4 0 14 -37 20 -82z"/>
<path d="M3532 7506 c-16 -19 -38 -39 -48 -44 -35 -18 -147 -52 -173 -52 -39
1 -212 45 -248 64 -18 9 -40 16 -49 16 -16 0 -16 -2 1 -20 10 -11 23 -20 30
-20 7 0 25 -7 41 -14 16 -8 74 -25 129 -36 l99 -22 92 27 c97 29 164 76 164
116 0 26 -3 24 -38 -15z"/>
<path d="M4050 7490 c0 -32 35 -93 90 -155 50 -58 65 -96 58 -150 -3 -24 -11
-30 -67 -50 -35 -13 -68 -29 -72 -37 -16 -24 -5 -43 26 -43 17 0 37 -8 45 -18
14 -16 17 -16 50 0 47 24 70 73 70 148 0 73 -24 129 -81 193 -23 26 -51 66
-62 90 -23 45 -57 59 -57 22z"/>
<path d="M3448 6754 c-11 -11 23 -32 73 -44 177 -46 394 -33 484 27 26 17 9
17 -80 -2 -91 -19 -251 -19 -340 0 -111 25 -130 27 -137 19z"/>
<path d="M10095 7793 c-87 -19 -141 -58 -178 -127 -19 -35 -22 -57 -22 -156 0
-99 3 -121 22 -156 47 -87 142 -132 260 -121 90 9 100 17 105 79 2 29 3 55 1
57 -2 2 -20 -1 -42 -7 -66 -20 -126 -15 -159 13 -62 52 -70 227 -13 279 39 35
80 36 190 5 20 -5 46 102 28 113 -33 21 -141 33 -192 21z"/>
<path d="M6044 7523 c-47 -148 -88 -271 -91 -275 -2 -5 27 -8 65 -8 l70 0 6
38 c14 76 8 72 110 72 l93 0 9 -52 9 -53 72 -3 71 -3 -54 183 c-30 101 -66
225 -80 276 l-27 92 -83 0 -83 0 -87 -267z"/>
<path d="M6714 7516 l1 -276 68 0 67 0 0 90 0 90 33 0 c31 0 35 -4 72 -80 54
-111 59 -114 134 -99 34 6 64 15 67 20 2 4 -25 50 -60 102 l-65 94 28 21 c45
33 74 103 69 163 -5 53 -26 89 -72 123 -24 19 -44 21 -185 24 l-157 4 0 -276z
m244 158 c17 -12 22 -25 22 -61 0 -64 -27 -93 -87 -93 l-43 0 0 85 0 85 43 0
c23 0 53 -7 65 -16z"/>
<path d="M7370 7735 l0 -55 71 0 70 0 -3 -220 -3 -220 68 0 67 0 0 220 0 220
64 0 c70 0 76 6 76 78 l0 32 -205 0 -205 0 0 -55z"/>
<path d="M8035 7518 l0 -273 85 -5 c110 -6 212 4 258 27 49 24 82 75 82 127 0
55 -18 86 -63 111 l-37 21 30 22 c39 30 57 89 42 140 -24 81 -77 101 -262 102
l-135 0 0 -272z m248 150 c23 -27 22 -49 -4 -82 -17 -21 -29 -26 -65 -26 l-44
0 0 71 0 70 48 -6 c28 -4 54 -15 65 -27z m11 -219 c32 -25 35 -68 6 -94 -12
-11 -41 -20 -74 -23 l-53 -4 -7 61 c-4 34 -4 66 -1 71 12 19 100 11 129 -11z"/>
<path d="M8734 7515 l1 -275 183 0 182 0 0 55 0 55 -115 0 -115 0 0 55 0 55
89 0 89 0 4 51 c1 28 1 53 -1 55 -2 2 -44 4 -93 4 l-88 0 0 55 0 55 114 0 113
0 7 46 c3 25 3 50 0 55 -3 5 -87 9 -188 9 l-182 0 0 -275z"/>
<path d="M9362 7515 l2 -275 153 0 153 0 0 24 c0 13 3 37 6 54 l6 31 -93 3
-94 3 3 218 4 217 -71 0 -71 0 2 -275z"/>
<path d="M10560 7515 l0 -275 65 0 65 0 0 110 0 110 106 0 107 0 -6 -110 -6
-110 70 0 69 0 0 275 0 275 -71 0 -72 0 8 -110 7 -110 -107 0 -107 0 4 110 3
110 -67 0 -68 0 0 -275z"/>
<path d="M11334 7515 l1 -275 183 0 182 0 0 55 0 55 -115 0 -115 0 0 55 0 55
89 0 89 0 4 51 c1 28 1 53 -1 55 -2 2 -44 4 -93 4 l-88 0 0 55 0 55 114 0 113
0 7 46 c3 25 3 50 0 55 -3 5 -87 9 -188 9 l-182 0 0 -275z"/>
<path d="M11965 7515 l0 -275 68 0 67 0 0 90 0 90 35 0 c34 0 36 -3 80 -89 24
-49 49 -92 55 -96 13 -8 121 12 133 24 6 6 -13 44 -53 101 l-62 92 30 31 c43
46 62 89 62 144 0 66 -27 113 -80 141 -40 20 -59 22 -190 22 l-145 0 0 -275z
m242 160 c27 -19 37 -59 23 -101 -14 -41 -35 -54 -89 -54 l-41 0 0 85 0 85 43
0 c23 0 52 -7 64 -15z"/>
</g>
</svg>
